<?xml version="1.0" encoding="UTF-8" standalone="no"?>
<!-- Created with Inkscape (http://www.inkscape.org/) -->
<svg id="svg2" xmlns:rdf="http://www.w3.org/1999/02/22-rdf-syntax-ns#" xmlns="http://www.w3.org/2000/svg" height="32" width="32" version="1.1" xmlns:cc="http://creativecommons.org/ns#" xmlns:dc="http://purl.org/dc/elements/1.1/" viewBox="0 0 31.999999 31.999998">
 <metadata id="metadata7">
  <rdf:RDF>
   <cc:Work rdf:about="">
    <dc:format>image/svg+xml</dc:format>
    <dc:type rdf:resource="http://purl.org/dc/dcmitype/StillImage"/>
    <dc:title/>
   </cc:Work>
  </rdf:RDF>
 </metadata>
 <g id="g3356" transform="translate(0,-1.5e-6)">
  <g id="g3358" fill-rule="nonzero">
   <path id="rect3360" style="enable-background:accumulate;color:#000000;" d="m9,17,0,15-1,0,0,1,1,0,0,2,13,0,0-2,1,0,1,0,1,0,1,0,0-1,0-1,0-1,0-1,0-1,0-1,0-1,0-1-1,0,0,1,0,1,0,1,0,1,0,1,0,1,0,1-1,0-1,0-1,0,0-15-13,0z" transform="translate(0,-15.999999)" fill="#4d8dd9"/>
   <path id="rect3362" style="enable-background:accumulate;color:#000000;" d="m14,31,0,1,1,0,1,0,1,0,0-1-1,0-1,0-1,0z" transform="translate(0,-15.999999)" fill="#333"/>
   <path id="rect3368" style="enable-background:accumulate;color:#000000;" d="m11,23,0,1,1,0,1,0,0-1-1,0-1,0z" transform="translate(0,-15.999999)" fill="#333"/>
   <path id="rect3370" style="enable-background:accumulate;color:#000000;" d="m18,23,0,1,1,0,1,0,0-1-1,0-1,0z" transform="translate(0,-15.999999)" fill="#333"/>
   <rect id="rect3372" style="enable-background:accumulate;color:#000000;" height="1" width="1" y="14" x="17" fill="#333"/>
   <rect id="rect3374" style="enable-background:accumulate;color:#000000;" height="1" width="1" y="14" x="13" fill="#333"/>
   <path id="rect3376" style="enable-background:accumulate;color:#000000;" d="m21,46,0,1,0,1,1,0,1,0,0-1,0-1-1,0-1,0z" transform="translate(0,-15.999999)" fill="#333"/>
   <path id="rect3380" style="enable-background:accumulate;color:#000000;" d="m21,42,0,1,0,1,1,0,1,0,0-1,0-1-1,0-1,0z" transform="translate(0,-15.999999)" fill="#333"/>
   <path id="rect3384" style="enable-background:accumulate;color:#000000;" d="m8,42,0,1,0,1,1,0,1,0,0-1,0-1-1,0-1,0z" transform="translate(0,-15.999999)" fill="#333"/>
   <path id="rect3386" style="enable-background:accumulate;color:#000000;" d="m8,46,0,1,0,1,1,0,1,0,0-1,0-1-1,0-1,0z" transform="translate(0,-15.999999)" fill="#333"/>
   <rect id="rect3408" style="enable-background:accumulate;color:#000000;" height="1" width="1" y="8" x="10" fill="#333"/>
   <rect id="rect3412" style="enable-background:accumulate;color:#000000;" height="1" width="1" y="8" x="20" fill="#333"/>
   <rect id="rect3414" style="enable-background:accumulate;color:#000000;" height="1" width="1" y="8" x="13" fill="#333"/>
   <rect id="rect3416" style="enable-background:accumulate;color:#000000;" height="1" width="1" y="8" x="17" fill="#333"/>
   <path id="rect3418" style="enable-background:accumulate;color:#000000;" d="m6,32,0,1,0,1,0,1,0,1,0,1,0,1,0,1,0,1,1,0,0-1,0-1,0-1,0-1,0-1,0-1,0-1,0-1-1,0z" transform="translate(0,-15.999999)" fill="#1a4578"/>
   <path id="rect3422" style="enable-background:accumulate;color:#000000;" d="m8,33,0,1,0,1,0,1,0,1,0,1,0,1,0,1,1,0,0-1,0-1,0-1,0-1,1,0,1,0,1,0,1,0,1,0,0,1,0,1,0,1,0,1,0,1-1,0-1,0,0,1,1,0,1,0,0,1,1,0,0-1,0-1,0-1,0-1,0-1,0-1,0-1,0-1-1,0-1,0-1,0-1,0-1,0-1,0,0-1,0-1-1,0z" transform="translate(0,-15.999999)" fill="#1a4578"/>
   <path id="rect3436" style="enable-background:accumulate;color:#000000;" d="m22,33,0,1,0,1-1,0-1,0-1,0-1,0-1,0-1,0,0,1,0,1,0,1,0,1,0,1,0,1,0,1,0,1,1,0,0-1,1,0,1,0,0-1-1,0-1,0,0-1,0-1,0-1,0-1,0-1,1,0,1,0,1,0,1,0,1,0,1,0,0-1,0-1,1,0,1,0,1,0,0-1-1,0-1,0-1,0-1,0z" transform="translate(0,-15.999999)" fill="#1a4578"/>
   <path id="rect3452" style="enable-background:accumulate;color:#000000;" d="m8,16,0,1,0,1,0,1,0,1,0,1,0,1,0,1,0,1,0,1,0,1,0,1,0,1,0,1,0,1,0,1-1,0,0,1,1,0,1,0,0-1,0-1,0-1,0-1,0-1,0-1,0-1,0-1,0-1,0-1,0-1,0-1,0-1,0-1,0-1,1,0,1,0,1,0,1,0,1,0,1,0,1,0,1,0,1,0,0,1,1,0,0,1,0,1,1,0,0-1,1,0,0-1,1,0,0,1,0,1,0,1,0,1,0,1,0,1,0,1,0,1,0,1,0,1,0,1,0,1,0,1,0,1,1,0,1,0,1,0,0-1,0-1,0-1,0-1,0-1,0-1,0-1-1,0,0,1,0,1,0,1,0,1,0,1,0,1-1,0,0-1,0-1,0-1,0-1,0-1,0-1,0-1,0-1,0-1,0-1,0-1,0-1,0-1,0-1,0-1-1,0-1,0-1,0-1,0-1,0-1,0-1,0-1,0-1,0-1,0-1,0-1,0-1,0-1,0-1,0z" transform="translate(0,-15.999999)" fill="#1a4578"/>
   <path id="rect3522" style="enable-background:accumulate;color:#000000;" d="m26,25,0,1,0,1,0,1,0,1,0,1,0,1,0,1,0,1,1,0,0-1,0-1,0-1,0-1,0-1,0-1,0-1,0-1-1,0z" transform="translate(0,-15.999999)" fill="#1a4578"/>
   <rect id="rect3532" style="enable-background:accumulate;color:#000000;" transform="scale(-1,1)" height="1" width="1" y="7.9995" x="-26" fill="#1a4578"/>
   <rect id="rect3570" style="enable-background:accumulate;color:#000000;" transform="scale(-1,1)" height="1" width="1" y="24.001" x="-8.0002" fill="#1a4578"/>
   <path id="rect3576" style="enable-background:accumulate;color:#000000;" d="m28,24,0,1,0,1,1,0,0-1,0-1-1,0z" transform="translate(0,-15.999999)" fill="#1a4578"/>
   <rect id="rect3580" style="enable-background:accumulate;color:#000000;" transform="scale(-1,1)" height="1" width="1" y="7" x="-28" fill="#1a4578"/>
   <path id="rect3582" style="enable-background:accumulate;color:#000000;" d="m25,22,0,1,1,0,1,0,0-1-1,0-1,0z" transform="translate(0,-15.999999)" fill="#1a4578"/>
   <path id="rect3584" style="enable-background:accumulate;color:#000000;" d="m17,45,0,1,1,0,1,0,0-1-1,0-1,0z" transform="translate(0,-15.999999)" fill="#1a4578"/>
   <path id="rect3588" style="enable-background:accumulate;color:#000000;" d="m19,46,0,1,1,0,1,0,0-1-1,0-1,0z" transform="translate(0,-15.999999)" fill="#1a4578"/>
   <path id="rect3592" style="enable-background:accumulate;color:#000000;" d="m17,43,0,1,1,0,1,0,0-1-1,0-1,0z" transform="translate(0,-15.999999)" fill="#1a4578"/>
   <path id="rect3596" style="enable-background:accumulate;color:#000000;" d="m19,44,0,1,1,0,1,0,0-1-1,0-1,0z" transform="translate(0,-15.999999)" fill="#1a4578"/>
   <path id="rect3600" style="enable-background:accumulate;color:#000000;" d="m12,45,0,1,1,0,1,0,0-1-1,0-1,0z" transform="translate(0,-15.999999)" fill="#1a4578"/>
   <path id="rect3604" style="enable-background:accumulate;color:#000000;" d="m10,46,0,1,1,0,1,0,0-1-1,0-1,0z" transform="translate(0,-15.999999)" fill="#1a4578"/>
   <path id="rect3608" style="enable-background:accumulate;color:#000000;" d="m12,43,0,1,1,0,1,0,0-1-1,0-1,0z" transform="translate(0,-15.999999)" fill="#1a4578"/>
   <path id="rect3612" style="enable-background:accumulate;color:#000000;" d="m10,44,0,1,1,0,1,0,0-1-1,0-1,0z" transform="translate(0,-15.999999)" fill="#1a4578"/>
   <path id="rect3618" style="enable-background:accumulate;color:#000000;" d="m14,44,0,1,1,0,1,0,1,0,0-1-1,0-1,0-1,0z" transform="translate(0,-15.999999)" fill="#1a4578"/>
   <path id="rect3638" style="enable-background:accumulate;color:#000000;" d="m19,42,0,1,1,0,1,0,0-1-1,0-1,0z" transform="translate(0,-15.999999)" fill="#1a4578"/>
   <path id="rect3646" style="enable-background:accumulate;color:#000000;" d="m19,40,0,1,1,0,1,0,0-1-1,0-1,0z" transform="translate(0,-15.999999)" fill="#1a4578"/>
   <path id="rect3654" style="enable-background:accumulate;color:#000000;" d="m10,42,0,1,1,0,1,0,0-1-1,0-1,0z" transform="translate(0,-15.999999)" fill="#1a4578"/>
   <path id="rect3658" style="enable-background:accumulate;color:#000000;" d="m10,40,0,1,1,0,1,0,0-1-1,0-1,0z" transform="translate(0,-15.999999)" fill="#1a4578"/>
   <rect id="rect3662" style="enable-background:accumulate;color:#000000;" transform="scale(-1,1)" height="1" width="1" y="29" x="-22.001" fill="#1a4578"/>
   <rect id="rect3664" style="enable-background:accumulate;color:#000000;" transform="scale(-1,1)" height="1" width="1" y="25" x="-22.001" fill="#1a4578"/>
   <rect id="rect3666" style="enable-background:accumulate;color:#000000;" transform="scale(-1,1)" height="1" width="1" y="25" x="-10.001" fill="#1a4578"/>
   <rect id="rect3668" style="enable-background:accumulate;color:#000000;" transform="scale(-1,1)" height="1" width="1" y="29" x="-10.001" fill="#1a4578"/>
   <path id="rect3700" style="enable-background:accumulate;color:#000000;" d="m15,35,0,1,0,1,0,1,0,1,0,1,0,1,0,1,0,1-1,0,0,1,1,0,1,0,1,0,0-1-1,0,0-1,0-1,0-1,0-1,0-1,0-1,0-1,0-1-1,0z" transform="translate(0,-15.999999)" fill="#CCC"/>
   <path id="rect3706" style="enable-background:accumulate;color:#000000;" d="m12,44,0,1,1,0,1,0,0-1-1,0-1,0z" transform="translate(0,-15.999999)" fill="#CCC"/>
   <path id="rect3710" style="enable-background:accumulate;color:#000000;" d="m10,45,0,1,1,0,1,0,0-1-1,0-1,0z" transform="translate(0,-15.999999)" fill="#CCC"/>
   <path id="rect3714" style="enable-background:accumulate;color:#000000;" d="m17,44,0,1,1,0,1,0,0-1-1,0-1,0z" transform="translate(0,-15.999999)" fill="#CCC"/>
   <path id="rect3718" style="enable-background:accumulate;color:#000000;" d="m19,45,0,1,1,0,1,0,0-1-1,0-1,0z" transform="translate(0,-15.999999)" fill="#CCC"/>
   <path id="rect3722" style="enable-background:accumulate;color:#000000;" d="m17,42,0,1,1,0,1,0,0-1-1,0-1,0z" transform="translate(0,-15.999999)" fill="#CCC"/>
   <path id="rect3726" style="enable-background:accumulate;color:#000000;" d="m19,41,0,1,1,0,1,0,0-1-1,0-1,0z" transform="translate(0,-15.999999)" fill="#CCC"/>
   <path id="rect3744" style="enable-background:accumulate;color:#000000;" d="m12,42,0,1,1,0,1,0,0-1-1,0-1,0z" transform="translate(0,-15.999999)" fill="#CCC"/>
   <path id="rect3748" style="enable-background:accumulate;color:#000000;" d="m10,41,0,1,1,0,1,0,0-1-1,0-1,0z" transform="translate(0,-15.999999)" fill="#CCC"/>
   <path id="rect3784" style="enable-background:accumulate;color:#000000;" d="m7,32,0,1,0,1,1,0,0-1,0-1-1,0z" transform="translate(0,-15.999999)" fill="#a6c6ec"/>
   <path id="rect3788" style="enable-background:accumulate;color:#000000;" d="m9,17,0,1,0,1,0,1,0,1,1,0,0-1,0-1,0-1,1,0,0-1-1,0-1,0z" transform="translate(0,-15.999999)" fill="#a6c6ec"/>
   <path id="rect3802" style="enable-background:accumulate;color:#000000;" d="m-8.0002,18,1,0,0,1-1,0zm0.0000172,1.0002,1,0,0,1-1,0zm-0.0000324,4.0011,1,0,0,1-1,0zm0-1.0001,1,0,0,1-1,0zm0-1.0001,1,0,0,1-1,0zm0-1.0008,1,0,0,1-1,0z" transform="scale(-1,1)" fill="#4d8dd9"/>
  </g>
 </g>
</svg>
